<?xml version="1.0" encoding="UTF-8"?>
<!DOCTYPE svg PUBLIC "-//W3C//DTD SVG 1.1//EN" "http://www.w3.org/Graphics/SVG/1.1/DTD/svg11.dtd">
<!-- Creator: CorelDRAW -->
<svg xmlns="http://www.w3.org/2000/svg" xml:space="preserve" width="193.666mm" height="76.4538mm" version="1.1" style="shape-rendering:geometricPrecision; text-rendering:geometricPrecision; image-rendering:optimizeQuality; fill-rule:evenodd; clip-rule:evenodd"
viewBox="0 0 19367 7645"
 xmlns:xlink="http://www.w3.org/1999/xlink">
 <defs>
  <style type="text/css">
   <![CDATA[
    .fil0 {fill:black;fill-rule:nonzero}
   ]]>
  </style>
 </defs>
 <g id="Layer_x0020_1">
  <metadata id="CorelCorpID_0Corel-Layer"/>
  <g id="vc047503.ai">
   <g>
    <g>
     <path class="fil0" d="M12026 2086c-254,41 -742,121 -1370,222 -178,-177 -357,-355 -522,-519 570,-85 1031,-153 1314,-195 185,158 385,328 578,492z"/>
     <path class="fil0" d="M11514 3163c-176,-176 -411,-410 -661,-659 615,-104 1105,-187 1388,-235 403,343 727,619 727,619 0,0 -579,109 -1454,275z"/>
     <path class="fil0" d="M10298 2369c-379,61 -796,129 -1235,200 -171,-184 -344,-370 -505,-544 438,-65 854,-126 1233,-183 161,167 334,348 507,527z"/>
     <path class="fil0" d="M9898 3468c-167,-179 -396,-426 -641,-691 436,-74 853,-144 1233,-208 239,248 466,484 641,666 -377,71 -794,150 -1233,233z"/>
     <path class="fil0" d="M8707 2629c-402,66 -819,133 -1236,201 -165,-192 -333,-387 -489,-568 418,-62 833,-124 1235,-184 155,175 323,364 490,551z"/>
     <path class="fil0" d="M8284 3773c-153,-176 -378,-437 -623,-723 417,-70 832,-141 1235,-209 233,262 453,510 621,699 -401,76 -816,155 -1233,233z"/>
     <path class="fil0" d="M7130 2887c-399,65 -796,130 -1181,192 -165,-196 -335,-398 -494,-588 388,-58 788,-117 1190,-177 155,183 322,380 485,573z"/>
     <path class="fil0" d="M6772 4059c-132,-157 -365,-434 -629,-749 384,-65 779,-132 1176,-199 240,283 461,544 616,728 -392,74 -784,148 -1163,220z"/>
     <path class="fil0" d="M5589 3140c-411,66 -803,130 -1163,188 -164,-201 -335,-410 -497,-608 362,-54 756,-113 1167,-174 159,192 328,395 493,594z"/>
     <path class="fil0" d="M5257 4346c-86,-106 -335,-410 -633,-776 360,-61 751,-127 1159,-196 260,313 492,592 626,754 -407,77 -796,150 -1152,218z"/>
     <path class="fil0" d="M2683 3902c253,-43 795,-135 1501,-255 262,345 488,643 598,788 -913,173 -1522,288 -1522,288 0,0 -260,-370 -577,-821z"/>
     <path class="fil0" d="M2050 3001c272,-40 801,-119 1477,-219 152,200 314,413 470,618 -721,118 -1266,206 -1496,243 -153,-217 -310,-441 -451,-642z"/>
     <path class="fil0" d="M11285 1455c-252,34 -716,97 -1308,178 -239,-237 -432,-430 -524,-521 755,-95 1245,-156 1245,-156 0,0 252,214 587,499z"/>
     <path class="fil0" d="M9636 1681c-379,51 -799,108 -1241,168 -222,-238 -405,-436 -504,-542 446,-56 865,-108 1237,-155 101,105 286,297 508,529z"/>
     <path class="fil0" d="M8056 1898c-404,54 -822,111 -1242,168 -211,-245 -387,-449 -486,-564 421,-52 838,-105 1239,-155 93,104 271,305 489,551z"/>
     <path class="fil0" d="M6476 2114c-405,55 -809,110 -1201,162 -205,-244 -381,-453 -489,-581 394,-49 800,-100 1207,-151 99,117 274,324 483,570z"/>
     <path class="fil0" d="M4915 2328c-415,56 -812,110 -1176,159 -206,-252 -383,-469 -490,-600 361,-45 759,-95 1177,-147 97,117 275,331 489,588z"/>
     <path class="fil0" d="M1425 2115c0,0 583,-73 1458,-182 94,124 263,346 463,610 -690,93 -1222,165 -1478,200 -191,-271 -322,-459 -322,-459l-121 -169z"/>
     <polygon class="fil0" points="48,1415 3236,6245 17146,3202 16905,3974 2898,7645 0,2719 "/>
     <polygon class="fil0" points="5530,4675 9780,3866 10312,4445 6025,5375 5675,4880 "/>
     <polygon class="fil0" points="11942,835 12919,727 15044,2490 14066,2671 12159,1005 "/>
     <path class="fil0" d="M16095 2200c0,0 3671,-48 3236,1763 -435,1811 -2850,2028 -2850,2028l266 -314c0,0 2222,-314 2246,-1932 0,0 97,-1135 -2439,-1159l-459 -386z"/>
     <polygon class="fil0" points="48,1417 13153,0 17157,3200 16898,3459 13052,287 194,1765 "/>
    </g>
   </g>
  </g>
 </g>
</svg>
